<?xml version="1.0" encoding="utf-8"?>
<!-- Generator: Adobe Illustrator 21.0.2, SVG Export Plug-In . SVG Version: 6.00 Build 0)  -->
<svg version="1.1" id="Layer_1" xmlns="http://www.w3.org/2000/svg" xmlns:xlink="http://www.w3.org/1999/xlink" x="0px" y="0px"
	 width="440.5px" height="189.09px" viewBox="0 0 440.5 189.09" style="enable-background:new 0 0 440.5 189.09;"
	 xml:space="preserve">
<style type="text/css">
	.st0{fill:#D11818;}
</style>
<g>
	<path class="st0" d="M19.17,25.73h1.33c7.75,3.98,12.87,8.25,15.36,12.78c16.16,0,34.06,20.89,53.71,62.67
		c5.98,13.67,8.96,23.91,8.96,30.71v6.39c-10.79,10.24-20.17,15.36-28.14,15.36h-3.82v7.64h-3.9v-7.64h-1.25v19.17l-2.57,2.57
		l-1.25-1.25v-19.26c-1.55-3.04-11.79-7.72-30.71-14.03L16.6,130.65l5.15-7.72h3.82l14.11,6.39v-1.25
		c-8.52-37.3-17.49-64.61-26.89-81.93C5.26,42.5,1,39.51,0,37.19l5.15-7.64h6.39l1.25,1.25h1.33L19.17,25.73z M37.1,53.87v1.25
		c5.09,8.63,13.2,35.5,24.32,80.6l1.25,1.33H64c9.35-2.66,14.03-5.64,14.03-8.96c-5.09-24.02-15.33-45.35-30.71-64
		C43.16,57.77,39.76,54.37,37.1,53.87z"/>
	<path class="st0" d="M106.91,29.47c10.18,0,22.88,7.91,38.1,23.74c6.92,9.24,14.83,30.69,23.74,64.33v1.25
		c-4.7,1.83-7.06,3.4-7.06,4.73c-18.15-7.86-36.8-18.18-55.95-30.96h-1.25c4.48,17.21,14.42,30.3,29.8,39.26h2.32l9.55-5.89h3.57
		c1.6,0,2.41,1.16,2.41,3.49l1.16-1.08h1.25c3.93,3.04,5.89,6.2,5.89,9.46l-14.28,9.55h-7.14c-21.91-7.36-37.8-20.45-47.65-39.26
		c-5.53-11.46-8.3-23.38-8.3-35.78c4.76-28.55,11.09-42.83,19.01-42.83H106.91z M109.23,44.91l-4.73,26.23v3.57l39.35,26.15h2.32
		l-15.44-40.42c-8.36-10.35-15.11-15.52-20.25-15.52H109.23z"/>
	<path class="st0" d="M196.8,25.07c0,2.32,2.3,3.49,6.89,3.49c2.32,1.49,3.87,4.15,4.65,7.97l-1.16,4.65l20.67,98.78
		c-3.32,0-5.62,1.52-6.89,4.57l-6.89-4.57c-3.54,5.09-7.75,8.91-12.62,11.46h-10.38c-9.24,0-20.34-6.89-33.29-20.67l-1.16-5.73
		v-6.89c5.81-31.43,15.38-47.15,28.72-47.15h4.57l5.81,1.16l-3.49-16.02h-1.16l-35.61,22.91h-2.24c-6.14-3.6-9.21-6.28-9.21-8.05
		c0-4.59,13-14.91,39.01-30.96C189.5,30.05,194.09,25.07,196.8,25.07z M193.4,85.91v14.94l-2.32,2.32l-1.16-1.16V87.08h-1.08
		l-2.32,2.32v29.88l-2.32,2.24l-1.16-1.16V96.29h-1.08c-4.59,11.95-6.89,20.37-6.89,25.23v5.73c4.32,6.14,8.52,9.21,12.62,9.21h4.57
		c4.21-2.49,8.02-10.51,11.46-24.07c-3.98-17.65-7.03-26.48-9.13-26.48H193.4z"/>
	<path class="st0" d="M245.44,0h2.32l4.57,3.49l1.16-1.16c3.87,1.55,5.37,4.48,4.48,8.8c2.77,5.92,5.48,22.08,8.13,48.48
		c7.69,33.59,12.31,51.33,13.86,53.21c8.47,2.1,12.7,5.17,12.7,9.21v1.16c-2.66,0.61-4.98,2.93-6.97,6.97
		c4.92,10.02,9.19,21.94,12.78,35.78c-2.1,0-4.43,1.16-6.97,3.49h-2.32c-8.47-3.82-12.7-10.35-12.7-19.59l-2.32-4.65
		c-6.2,3.82-11.21,5.73-15.02,5.73h-6.89v38.18h-1.16l-2.32-2.32v-36.94c-13.45,0-22.33-10.79-26.65-32.37
		c-1.77,0-4.45-8.49-8.05-25.48V71.22c2.21-14.66,5.67-22,10.38-22h4.65c5.2,0,11.37,1.55,18.51,4.65L240.8,12.7V5.81L245.44,0z
		 M236.06,64.25c-2.32,2.93-3.49,6.39-3.49,10.38v15.02c5.42,30.82,11.98,46.24,19.67,46.24c5.92,0,10.54-3.46,13.86-10.38
		c-3.87-8.13-8.5-23.93-13.86-47.4C247.33,68.87,241.93,64.25,236.06,64.25z"/>
	<path class="st0" d="M297.24,20.75h2.08l4.07,3.07l1.08-1c3.38,2.77,5.06,5.48,5.06,8.13l-3.07,6.14
		c16.38,22.47,25.57,40.48,27.56,54.04v8.22c0,9.02-10.21,17.18-30.63,24.49h-3.07v1l14.28,42.83l-5.06,3.07h-2.08
		c-6.47-2.44-11.23-8.91-14.28-19.42l-13.2-39.76c-6.86-4.43-10.96-9.52-12.29-15.27c1.38,0,2.08-1.38,2.08-4.15l1-1h3.07l4.07,3.07
		h3.07V79.94c0-9.24,2.71-24.21,8.13-44.91c-1.72,0-3.4-2.71-5.06-8.13c1.16,0,2.19-1.71,3.07-5.15h1.99l5.15,3.07L297.24,20.75z
		 M297.24,83.01v25.48l1.08,1v1.08c13.61-5.59,20.42-11.73,20.42-18.43c-3.15-13.61-8.61-25.84-16.35-36.69
		C300.17,55.45,298.45,64.64,297.24,83.01z"/>
	<path class="st0" d="M343.39,71.97h4.32c12.89,6.7,19.34,15.27,19.34,25.73v17.18c0,5.7-6.09,11.79-18.26,18.26h-1.08v27.89
		l-2.16,2.16l-1.08-1.08v-27.89l-2.16-2.16h-1.08v50.39l-2.08,2.16l-1.08-1.08v-37.52c-2.16,0-3.24-0.72-3.24-2.16v-15.02
		l-12.87-9.63l-2.16-7.55v-3.24C324.35,84.12,332.21,71.97,343.39,71.97z M337,109.49v4.32c1.16,2.88,3.65,4.32,7.47,4.32
		c3.6-3.71,5.4-6.94,5.4-9.71V94.46c0-3.71-1.08-5.84-3.24-6.39C343.58,88.07,340.37,95.21,337,109.49z"/>
	<path class="st0" d="M377.08,71.97h4.32c12.89,6.7,19.34,15.27,19.34,25.73v17.18c0,5.7-6.09,11.79-18.26,18.26h-1.08v27.89
		l-2.16,2.16l-1.08-1.08v-27.89l-2.16-2.16h-1.08v50.39l-2.08,2.16l-1.08-1.08v-37.52c-2.16,0-3.24-0.72-3.24-2.16v-15.02
		l-12.87-9.63l-2.16-7.55v-3.24C358.05,84.12,365.91,71.97,377.08,71.97z M370.69,109.49v4.32c1.16,2.88,3.65,4.32,7.47,4.32
		c3.6-3.71,5.4-6.94,5.4-9.71V94.46c0-3.71-1.08-5.84-3.24-6.39C377.28,88.07,374.07,95.21,370.69,109.49z"/>
	<path class="st0" d="M407.96,48.89c8.69,1.88,13.03,5.15,13.03,9.79c-7.97,21.36-11.95,41.97-11.95,61.84
		c0.5,5.81,1.22,8.72,2.16,8.72l15.19-7.64h3.32c7.19,2.88,10.79,6.5,10.79,10.87l-31.46,15.19c-11.57-2.77-17.35-13.25-17.35-31.46
		C395.29,75.21,400.71,52.77,407.96,48.89z"/>
</g>
</svg>
